PathFileType	4	(X/Y/Z)	C:\Users\WrightLab\Desktop\Jo\P3_11.trc
DataRate	CameraRate	NumFrames	NumMarkers	Units	OrigDataRate	OrigDataStartFrame	OrigNumFrames
100.00	100.00	       12	19	mm	100.00	245	       653
Frame#	Time	Headset_Front			Headset_Back			Headset_Left			Headset_Right			Left_Shoulder			Right_Shoulder			Sternum			C7			Left Elbow			Right Elbow			Left Wrist			Right Wrist			Left ASIS			Right ASIS			S2			Left Knee			Right Knee			Left Ankle			Right Ankle			
		X1	Y1	Z1	X2	Y2	Z2	X3	Y3	Z3	X4	Y4	Z4	X5	Y5	Z5	X6	Y6	Z6	X7	Y7	Z7	X8	Y8	Z8	X9	Y9	Z9	X10	Y10	Z10	X11	Y11	Z11	X12	Y12	Z12	X13	Y13	Z13	X14	Y14	Z14	X15	Y15	Z15	X16	Y16	Z16	X17	Y17	Z17	X18	Y18	Z18	X19	Y19	Z19	

245	2.440	-128.63091	1523.04089	744.27911				-79.85275	1580.17114	548.73615	-262.23737	1542.02661	676.08612	-35.79863	1333.18262	429.87344	-347.15076	1356.33325	611.77771	-120.99432	1236.44836	638.92657	-222.19536	1394.05847	478.67313	9.19072	998.79529	395.89597	-426.41711	1018.32874	683.81952	65.77964	823.70050	494.73688	-343.49850	852.78052	819.60583	-49.19278	873.29083	582.15668	-265.24158	877.31744	706.89929	-263.26297	942.85486	457.64322	38.82060	489.42987	668.81445	-268.11935	443.07608	630.08630	49.02733	153.93240	663.49298	-302.51779	118.02581	542.50610	
246	2.450	-123.70957	1522.50891	752.10846				-73.83171	1578.34973	560.45776	-257.00449	1541.23193	683.51038	-30.03454	1332.57080	438.33038	-342.11517	1355.56958	619.02917	-116.16906	1236.16797	647.63361	-218.04195	1395.04041	481.15762	15.44117	998.16388	405.09348	-421.30582	1017.39264	690.41931	71.37225	823.27881	503.68314	-338.52460	852.62469	827.70691	-44.23986	872.70416	590.64612	-261.89651	876.49841	714.00189	-257.22021	942.01703	464.13870	43.17162	486.86639	674.11865	-267.38364	443.37717	634.07916	65.41110	152.89597	683.36664	-302.11560	118.21259	542.86285	
247	2.460	-118.74433	1521.81372	759.71320				-68.41340	1577.77515	564.55774	-252.06203	1541.00317	690.69379	-23.53542	1331.48291	447.59662	-336.98401	1354.66040	625.81793	-111.89670	1234.82056	655.65515	-212.11156	1394.10315	488.84329	21.78421	997.47003	413.69373	-416.19885	1016.39325	697.33533	77.16927	822.04016	511.81891	-333.22040	851.98785	834.86206	-38.90384	871.57318	600.06555	-257.73190	877.07367	724.89679	-250.68832	940.38806	471.57584	47.71043	484.05655	679.00439	-265.23837	442.25256	637.80573	80.36704	153.96448	703.99469	-301.73273	118.65502	543.80310	
248	2.470	-113.50845	1520.50879	767.18256				-62.59813	1576.06189	574.37335	-246.69955	1539.65112	697.84088	-17.44182	1330.39294	456.41376	-331.95755	1353.57239	632.82184	-106.76714	1233.11926	663.58826	-206.21291	1392.93286	496.40775	27.98656	996.19647	422.34540	-411.16910	1015.10529	704.03461	82.86835	821.00208	521.12061	-327.45038	851.06384	841.50317	-33.58615	870.32141	608.94940	-255.66963	875.97571	726.48358	-243.71225	939.12360	478.28802	52.06691	481.43286	684.71399	-263.20883	441.45020	641.90729	94.41483	155.25244	722.92773	-301.42343	118.59574	544.15747	
249	2.480	-108.53539	1519.53528	774.97223				-56.72222	1574.75073	581.47119	-241.24983	1538.87244	704.75360	-11.01890	1329.25818	465.12360	-326.88687	1352.23059	639.21045	-102.22319	1232.19739	671.96765	-199.78990	1391.27258	505.52023	34.65757	995.14703	431.68402	-405.77420	1014.06116	710.17188	88.50075	819.55457	529.58667	-322.14972	850.84277	849.01825	-29.06618	868.68805	619.40588	-250.84956	873.05908	731.31915	-237.27101	937.73663	484.82758	56.15145	480.06241	690.33490	-260.13351	440.01724	643.94659	107.47884	156.60786	740.74200	-301.04236	118.60118	544.59180	
250	2.490	-103.36047	1518.56458	782.70557				-51.32757	1573.78186	588.24677	-236.38927	1538.43188	712.34869	-4.65727	1328.00256	474.47964	-322.01102	1350.95911	646.07184	-97.46499	1230.73364	680.55609	-193.48766	1390.36121	512.06537	41.33556	993.96204	440.28674	-400.49036	1011.99139	716.41711	94.07627	817.93164	539.10950	-316.72818	850.10809	856.49878	-23.98390	867.04578	628.28882	-248.25705	871.96906	740.45569	-229.84575	936.40167	491.95935	60.95157	478.22870	697.19751	-256.81418	438.45398	648.13470	119.39068	159.08775	756.67627	-300.56320	118.93748	545.10028	
251	2.500	-98.57426	1517.60938	790.42175				-45.15398	1572.26953	597.67834	-231.28143	1537.46814	719.49976	1.67449	1326.33191	484.08835	-316.81030	1349.26758	652.61542	-92.38560	1229.77539	689.21033	-186.63063	1388.25061	521.16144	47.73787	992.74927	449.60123	-395.32199	1010.32031	722.82568	99.37422	816.03003	547.83282	-312.14804	848.37933	863.09918	-18.27729	865.83405	638.55756	-243.80473	870.31543	746.91132	-222.85132	935.00873	498.62799	66.15867	477.13428	706.21185	-254.26779	437.18979	652.27399	129.01472	161.12851	771.13556	-300.28470	119.05252	545.73419	
252	2.510	-93.97710	1516.76514	798.19513				-39.79749	1571.55725	603.73956	-225.85713	1536.34766	726.90381	8.11493	1325.08264	492.83362	-312.07294	1348.02686	658.87109	-87.40067	1228.34705	697.56476	-181.42714	1387.76196	527.98596	54.51329	991.10236	459.32101	-390.26218	1008.41284	729.10193	104.91222	814.29535	557.25165	-306.72638	847.30548	869.88531	-13.13549	864.00885	647.59912	-239.69489	868.70306	753.96021	-215.14749	932.95001	505.04855	71.12299	477.02667	716.48438	-251.31973	436.47632	656.75519	136.00481	162.37337	783.07635	-300.11844	120.05411	546.80377	
253	2.520	-88.82622	1515.88428	805.84833				-33.75005	1569.96191	614.38361	-220.46982	1535.73633	733.77814	14.94921	1323.39355	502.39618	-307.11353	1346.27490	665.54535	-82.97559	1227.24219	705.88226	-175.14955	1386.77014	535.67511	61.06487	989.57159	468.59515	-384.72797	1006.47791	734.54279	110.18365	812.54236	565.82690	-301.10361	845.67969	876.68744	-7.16683	862.63562	656.92767	-235.85852	868.31201	762.12244	-207.98393	932.20300	512.50623	75.84600	476.12323	726.12622	-247.82593	435.11871	661.04858	141.87378	162.20505	792.29242	-299.07602	120.43416	547.37579	
254	2.530	-84.11694	1514.94958	813.92828				-28.22357	1569.37769	619.97223	-215.74669	1534.72607	740.94836	21.57255	1321.66589	511.39429	-302.33258	1344.83008	672.10162	-78.17007	1226.04102	714.49329	-169.32498	1385.38806	543.09760	67.66550	988.09369	478.19958	-379.73163	1004.81580	740.41174	115.66118	810.41901	575.70239	-296.18008	844.91547	882.94708	-1.89574	860.93292	665.79089	-230.53273	867.45245	771.87244	-200.81456	930.79242	519.84747	81.41582	476.20367	736.59216	-246.37015	433.51010	666.67120	145.97191	160.67271	799.63660	-298.42868	120.55330	547.77075	
255	2.540	-79.50896	1514.16650	821.88483				-22.34285	1568.06250	629.36578	-211.19960	1533.94299	748.33905	27.87602	1320.82385	520.60846	-297.02417	1343.22620	679.13745	-72.91410	1224.75366	723.64417	-162.88661	1384.36743	551.19659	76.29012	986.88007	487.93100	-374.24249	1002.81842	746.01923	120.76335	809.00006	584.80237	-291.05750	844.18677	889.24640	4.12471	860.11731	675.88403	-225.42145	865.89972	777.22040	-193.49687	929.74194	527.03760	86.91772	475.49982	746.94958	-241.03195	433.20700	670.25208	148.49373	157.53355	806.29517	-298.46909	122.88499	550.08844	
256	2.550	-75.45199	1513.90100	829.93042				-16.74996	1567.31702	636.21167	-205.82951	1533.09692	755.51361	34.62171	1319.63916	530.35822	-291.74796	1342.00427	685.51013	-67.75908	1223.67993	731.77911	-156.66579	1383.12976	558.89014	82.63213	985.74591	497.74832	-368.84045	1001.26654	751.19409	126.41881	807.46014	593.50861	-286.26981	842.61255	895.21521	9.42941	859.26569	683.85168	-219.74011	862.51404	784.19696	-186.34244	929.07428	534.69183	91.97033	474.65173	756.49158	-236.74333	431.86905	675.04578	150.09732	154.05658	810.42731	-296.43335	121.75517	549.31818	
